<svg xmlns="http://www.w3.org/2000/svg" viewBox="0 0 1020.09 1020.09"><defs><style>.cls-1{fill:#8a5cad;}.cls-2{fill:#fff;}</style></defs><g id="Capa_2" data-name="Capa 2"><g id="Capa_1-2" data-name="Capa 1"><circle class="cls-1" cx="510.05" cy="510.05" r="510.05"/><path class="cls-2" d="M301.23,344.05c45,.66,45-70.1,0-69.43C256.19,274,256.19,344.71,301.23,344.05Z"/><path class="cls-2" d="M596.3,753.18c-45-.66-45,70.09,0,69.42C641.34,823.26,641.34,752.51,596.3,753.18Z"/><path class="cls-2" d="M176.43,478.54V447h224.1v31.55H337V799.3H287.14V478.54Z"/><path class="cls-2" d="M691.33,421.92V613.31h35.51V364.74H700.92L605.75,576,499.23,364.74H459.46l14.21,28.06V613.31h14.91V421.92l72.33,143.85c15.58,31,18.81,67.15,7.15,99.82-3,8.48-6.68,15.87-11,20.5-8.43,9-16.48,12.57-25.46,11.26-22.22-3.18-51.84-37.3-79.24-91.26-29-57.21-47.57-122.26-52.22-183.17-2.78-36.4,5.18-67.84,22.4-88.53,46.63-56,143.44-35.46,212.2-.87a12.64,12.64,0,1,0,11.36-22.59c-77-38.74-186.87-60.07-243,7.29-27.5,33-30.5,76.22-28.17,106.63,4.89,64.17,24.38,132.6,54.88,192.69,22.67,44.66,58.1,99.1,98.19,104.84a50.59,50.59,0,0,0,7.12.52c14.63,0,28.2-6.56,40.35-19.48,9.74-10.35,16-22.95,20.32-36.32,19.92-62.38,41.09-124.34,68-184Z"/><path class="cls-2" d="M813.12,340.28c-9.16-27.41-36.86-54.91-71.46-54-28.84.85-51.22,20.1-71,37.09-23.71,20.39-47.2,29-81.06,29.92a12.65,12.65,0,0,0-12.3,13,12.68,12.68,0,0,0,12.95,12.33c39.72-1,68.73-11.81,97-36.14,17.32-14.89,35.23-30.29,55.14-30.86,22.14-1,40.53,18.32,46.69,36.74,5.25,15.69,5.11,33.18,4.19,49.74-7,126.68-59.23,243.92-139.69,313.62a12.64,12.64,0,1,0,16.55,19.11c85.53-74.09,141-197.94,148.38-331.32C819.63,380.37,819.71,360,813.12,340.28Z"/></g></g></svg>